Coordinates
version=1
nRows=11
nColumns=40
inDegrees=yes

Units are S.I. units (second, meters, Newtons, ...)
Angles are in degrees.

endheader
time	pelvis_tilt	pelvis_list	pelvis_rotation	pelvis_tx	pelvis_ty	pelvis_tz	hip_flexion_r	hip_adduction_r	hip_rotation_r	knee_angle_r	knee_angle_r_beta	ankle_angle_r	subtalar_angle_r	mtp_angle_r	hip_flexion_l	hip_adduction_l	hip_rotation_l	knee_angle_l	knee_angle_l_beta	ankle_angle_l	subtalar_angle_l	mtp_angle_l	lumbar_extension	lumbar_bending	lumbar_rotation	arm_flex_r	arm_add_r	arm_rot_r	elbow_flex_r	pro_sup_r	wrist_flex_r	wrist_dev_r	arm_flex_l	arm_add_l	arm_rot_l	elbow_flex_l	pro_sup_l	wrist_flex_l	wrist_dev_l
     18.40314286	     -5.93095245	     -5.04890321	     -3.89823357	      0.81088971	      0.93273306	      0.45402396	     33.43690863	     -3.82085164	     -4.62454244	     61.78688092	     61.78688092	      2.22797256	    -10.63999714	     -1.25845408	     13.31191395	     -5.91989934	     -8.38078478	     20.38623613	     20.38623613	     14.90395905	     -8.87220961	      1.32981890	    -10.52338622	      6.08004682	      1.06278597	    -10.96257651	    -12.05711985	     -5.13013466	     25.67682169	     46.29110703	      0.00000000	      0.00000000	     20.83509612	    -16.91910178	     -8.64034933	     58.61151700	     47.16669563	      0.00000000	      0.00000000
     18.41628571	     -6.03766634	     -5.11820502	     -4.17885424	      0.80937686	      0.93293159	      0.45502786	     33.90776681	     -3.53708921	     -4.73795870	     59.27521419	     59.27521419	      2.34998202	    -10.21709731	     -1.15884814	     12.64830692	     -6.02612043	     -8.69471215	     19.71624221	     19.71624221	     14.96199502	     -8.69987607	      0.98948216	    -10.56652964	      6.11117826	      1.01354253	    -12.17467922	    -12.02206430	     -5.23735127	     25.85283814	     46.28114157	      0.00000000	      0.00000000	     21.67809273	    -17.21564957	     -9.12454015	     59.96909798	     47.23168438	      0.00000000	      0.00000000
     18.42942857	     -6.17476843	     -5.16563726	     -4.46230679	      0.80785969	      0.93290169	      0.45612179	     34.21212344	     -3.26702601	     -4.92226832	     56.28996491	     56.28996491	      2.25557276	     -9.80028939	     -1.58832581	     12.01940832	     -6.11235345	     -9.00427572	     19.01671943	     19.01671943	     14.66005839	     -8.64052013	     -0.24858974	    -10.61907261	      6.13397236	      0.76622563	    -13.37656960	    -12.03779578	     -5.62269302	     26.91808751	     46.25674610	      0.00000000	      0.00000000	     21.94385706	    -17.46103837	    -10.15763568	     62.19240210	     47.35178758	      0.00000000	      0.00000000
     18.44257143	     -6.35734262	     -5.19523641	     -4.75475970	      0.80636013	      0.93271809	      0.45733635	     34.39544938	     -3.00971758	     -5.20029970	     52.94010214	     52.94010214	      2.37842937	     -9.14535251	     -1.34677434	     11.49045695	     -6.18478853	     -9.26917226	     18.45463694	     18.45463694	     14.81899941	     -8.53574438	     -0.38639819	    -10.53595672	      6.15015755	      0.70503877	    -14.09741777	    -12.01166267	     -5.63503018	     26.73143538	     46.25972854	      0.00000000	      0.00000000	     22.76983125	    -17.75309175	    -10.38297815	     62.93469033	     47.38556350	      0.00000000	      0.00000000
     18.45571429	     -6.41744246	     -5.14332093	     -5.09526917	      0.80502122	      0.93256043	      0.45867749	     34.25220543	     -2.81248477	     -5.51369570	     49.19262568	     49.19262568	      2.45026030	     -8.31934175	     -1.36140075	     10.75886673	     -6.17188179	     -9.70436485	     17.78522144	     17.78522144	     14.88841515	     -8.31032153	     -0.80773982	    -10.64588427	      6.04696640	      0.88687636	    -14.77596294	    -11.94652853	     -5.71114927	     26.66930556	     46.26315370	      0.00000000	      0.00000000	     23.50557083	    -17.84028574	    -10.76245233	     64.26771360	     47.43987264	      0.00000000	      0.00000000
     18.46885714	     -6.64082924	     -5.15713210	     -5.36753325	      0.80374127	      0.93204939	      0.46005570	     34.04347185	     -2.55077892	     -6.07165827	     45.04842052	     45.04842052	      2.50097153	     -7.37989025	     -1.16045906	     10.29512650	     -6.24034839	     -9.94759436	     17.28291774	     17.28291774	     15.05367457	     -8.17528697	     -1.16118192	    -10.50547318	      6.06199908	      0.85427335	    -15.24711277	    -11.94684987	     -5.78191281	     26.63032591	     46.26674689	      0.00000000	      0.00000000	     24.03360824	    -17.96100965	    -11.00836568	     65.18222456	     47.47518507	      0.00000000	      0.00000000
     18.48200000	     -6.73249284	     -4.98819785	     -5.71688397	      0.80257320	      0.93153042	      0.46151848	     33.55171076	     -2.43564454	     -6.65227091	     40.64598419	     40.64598419	      2.35439363	     -6.11137129	     -1.50711500	      9.63903903	     -6.11580862	    -10.49232649	     16.69299606	     16.69299606	     14.96914247	     -7.95444781	     -1.97973618	    -10.60267381	      5.86501635	      0.94421428	    -15.55343902	    -11.83144764	     -5.94870146	     26.70941643	     46.27517103	      0.00000000	      0.00000000	     24.44190115	    -18.04847860	    -11.57231390	     66.87122902	     47.54666607	      0.00000000	      0.00000000
     18.49514286	     -7.00616622	     -4.91806764	     -5.98359420	      0.80148827	      0.93064409	      0.46304134	     33.01971237	     -2.14393859	     -7.40260787	     35.96577277	     35.96577277	      2.23213719	     -4.85732841	     -1.09512624	      9.31134958	     -6.10788713	    -10.71745090	     16.35321464	     16.35321464	     15.11480212	     -7.95689834	     -2.37101527	    -10.39011428	      5.84553559	      0.91757106	    -15.69053684	    -11.80762334	     -6.01079260	     26.68972663	     46.28025950	      0.00000000	      0.00000000	     24.81737234	    -18.16147627	    -11.77896295	     67.62039445	     47.57787256	      0.00000000	      0.00000000
     18.50828571	     -7.26906815	     -4.77479605	     -6.27508741	      0.80054394	      0.92960253	      0.46473477	     32.33901331	     -1.84862791	     -8.20340575	     31.21350044	     31.21350044	      2.04229313	     -3.30086795	     -0.48488494	      8.96567727	     -6.03255410	    -11.00479295	     16.01445514	     16.01445514	     15.27365668	     -7.92835194	     -2.73124435	    -10.19846540	      5.73828118	      1.01404644	    -15.65966091	    -11.66942644	     -6.03761368	     26.71304718	     46.28187966	      0.00000000	      0.00000000	     25.22007160	    -18.21908339	    -11.94145482	     68.37563913	     47.60597178	      0.00000000	      0.00000000
     18.52142857	     -7.23493731	     -4.58482478	     -6.49514583	      0.80014744	      0.92873884	      0.46633657	     31.18560946	     -1.72055221	     -9.51337901	     26.54149008	     26.54149008	      1.83918316	     -0.80539928	     -0.07583529	      8.20725308	     -5.86738149	    -11.43243508	     15.53619204	     15.53619204	     15.23517942	     -7.70022507	     -3.79953332	    -10.32233229	      5.55387608	      0.97997742	    -15.51773251	    -11.66345303	     -6.20480242	     26.67109109	     46.30052784	      0.00000000	      0.00000000	     25.16568809	    -18.16589804	    -12.46598182	     70.02254466	     47.67431806	      0.00000000	      0.00000000
     18.53457143	     -7.39812074	     -4.45759581	     -6.70188239	      0.79976351	      0.92744432	      0.46822157	     30.22774026	     -1.28324358	    -10.41731115	     22.13605595	     22.13605595	      1.48337226	      0.83883166	      1.02950927	      7.83041111	     -5.80762076	    -11.56631304	     15.39435395	     15.39435395	     15.48391980	     -7.84185597	     -4.19043489	    -10.15154387	      5.50597005	      1.02585812	    -15.29443983	    -11.61647754	     -6.23192142	     26.71268422	     46.30352519	      0.00000000	      0.00000000	     25.31241423	    -18.14465909	    -12.55061553	     70.57501947	     47.69230511	      0.00000000	      0.00000000
